<svg width="69" height="64" viewBox="0 0 69 64" fill="none" xmlns="http://www.w3.org/2000/svg">
<path fill-rule="evenodd" clip-rule="evenodd" d="M6.90572 0C3.0918 0 0 3.26931 0 7.30222V32.86C0 36.8928 3.0918 40.1622 6.90572 40.1622H48.3401C52.1539 40.1622 55.2458 36.8928 55.2458 32.86V7.30222C55.2458 3.26931 52.1539 0 48.3401 0H6.90572ZM6.47412 7.30222C5.75901 7.30222 5.17929 7.91523 5.17929 8.67139V11.4097C5.17929 12.1659 5.75901 12.7789 6.47412 12.7789H48.7717C49.4868 12.7789 50.0665 12.1659 50.0665 11.4097V8.67139C50.0665 7.91523 49.4868 7.30222 48.7717 7.30222H6.47412Z" fill="#7A73FF"/>
<path fill-rule="evenodd" clip-rule="evenodd" d="M41.4344 51.1155C45.1767 51.1155 48.6101 49.7164 51.2923 47.3861L53.5936 49.8194C52.9203 50.5324 52.9205 51.6876 53.5945 52.4003L63.6083 62.9891C64.2825 63.702 65.3756 63.702 66.0498 62.9891L68.4943 60.4043C69.1686 59.6914 69.1686 58.5355 68.4943 57.8226L58.4804 47.2336C57.8066 46.5211 56.7141 46.5208 56.0398 47.2327L53.7058 44.7648C55.753 41.9819 56.9722 38.4843 56.9722 34.6855C56.9722 25.6114 50.0158 18.2555 41.4344 18.2555C32.853 18.2555 25.8965 25.6114 25.8965 34.6855C25.8965 43.7596 32.853 51.1155 41.4344 51.1155ZM41.4344 45.6388C47.1552 45.6388 51.7929 40.7348 51.7929 34.6855C51.7929 28.6361 47.1552 23.7322 41.4344 23.7322C35.7135 23.7322 31.0758 28.6361 31.0758 34.6855C31.0758 40.7348 35.7135 45.6388 41.4344 45.6388Z" fill="black"/>
<path fill-rule="evenodd" clip-rule="evenodd" d="M41.4344 51.1155C45.1767 51.1155 48.6101 49.7164 51.2923 47.3861L53.5936 49.8194C52.9203 50.5324 52.9205 51.6876 53.5945 52.4003L63.6083 62.9891C64.2825 63.702 65.3756 63.702 66.0498 62.9891L68.4943 60.4043C69.1686 59.6914 69.1686 58.5355 68.4943 57.8226L58.4804 47.2336C57.8066 46.5211 56.7141 46.5208 56.0398 47.2327L53.7058 44.7648C55.753 41.9819 56.9722 38.4843 56.9722 34.6855C56.9722 25.6114 50.0158 18.2555 41.4344 18.2555C32.853 18.2555 25.8965 25.6114 25.8965 34.6855C25.8965 43.7596 32.853 51.1155 41.4344 51.1155ZM41.4344 45.6388C47.1552 45.6388 51.7929 40.7348 51.7929 34.6855C51.7929 28.6361 47.1552 23.7322 41.4344 23.7322C35.7135 23.7322 31.0758 28.6361 31.0758 34.6855C31.0758 40.7348 35.7135 45.6388 41.4344 45.6388Z" fill="#80E9FF"/>
</svg>
