<svg width="67" height="58" viewBox="0 0 67 58" fill="none" xmlns="http://www.w3.org/2000/svg">
<path d="M0.0151075 20.3784L0 15.9617C0 12.7395 2.60906 11.8784 5.65019 11.009L43.5141 0.170178C46.176 -0.58815 48.3333 1.25906 48.3333 4.29515V19.4756L0.0166182 20.3784H0.0151075Z" fill="#87BBFD"/>
<path d="M56.95 58H10.05C4.49954 58 0 54.2538 0 49.6326V18.9523H0.005025V16C0.005025 16 0.564475 18.7431 4.288 18.9523H56.95C62.5005 18.9523 67 22.6985 67 27.3197V49.6326C67 54.2538 62.5005 58 56.95 58ZM55.2683 34.2925C53.935 34.2917 52.656 34.7322 51.7129 35.5168C50.7698 36.3015 50.24 37.3661 50.24 38.4761C50.2427 40.7862 52.4937 42.6572 55.2683 42.6556C56.6013 42.6571 57.8804 42.2176 58.8241 41.4337C59.7677 40.6499 60.2987 39.586 60.3 38.4761C60.3 37.3656 59.7697 36.3006 58.8258 35.5159C57.882 34.7311 56.6022 34.291 55.2683 34.2925Z" fill="#6772E5"/>
</svg>
