<svg width="150" height="74" viewBox="0 0 150 74" fill="none" xmlns="http://www.w3.org/2000/svg">
<path d="M89.6683 58.3621C82.7248 60.1244 78.1617 61.8867 75.1555 63.5453C65.7222 59.2932 55.4596 57.0145 45.6116 57.0145C33.4831 57.0145 22.4948 60.1244 13.1652 64.5819L0 0H89.6683M26.745 16.1714H18.763V39.8065H34.7251V34.2087H26.745V16.1714ZM48.6178 36.1764C44.9896 36.1764 44.1603 34.6214 44.1603 30.2695H60.4373C60.4373 19.7996 57.9494 15.4438 48.6197 15.4438C38.4608 15.4438 35.7656 18.9684 35.7656 28.0907C35.7656 37.0076 39.4974 41.2559 48.1034 41.2559C56.6037 41.2559 59.7136 38.146 59.919 33.2738H52.4553C52.4534 35.2453 51.7277 36.1764 48.6178 36.1764ZM44.1603 25.6047C44.1603 22.0802 44.886 20.1125 48.3068 20.1125C51.626 20.1125 52.4534 21.6674 52.4534 25.6047H44.1603ZM69.3504 16.1714H60.6427L69.6614 39.8065H79.5093L88.7372 16.1714H80.235L74.7428 31.6171L69.3504 16.1714Z" fill="#A50716"/>
<path d="M89.5647 0H150L135.798 64.5819C126.469 59.1895 117.968 56.9109 105.632 56.9109C98.8944 56.9109 94.3332 57.5309 89.5647 58.3621M91.016 16.0677V39.8065H98.7907V16.0677H91.016ZM104.699 17.6227L104.285 20.005C106.773 18.4501 107.809 17.1024 107.809 15.3402C107.809 13.3706 106.462 12.3339 104.492 12.3339C102.523 12.3339 101.279 13.4762 101.279 15.1328C101.281 17.3117 102.73 17.6227 104.699 17.6227ZM115.791 32.3428H107.395C107.498 38.0442 110.505 40.3229 119.627 40.3229C128.127 40.3229 131.548 38.457 131.548 32.5482C131.548 23.2185 115.791 27.8834 115.791 22.2856C115.791 20.938 117.346 19.7977 119.42 19.7977C121.598 19.7977 122.426 20.7287 122.944 22.7002H130.926C130.822 17.7244 127.922 15.4438 119.938 15.4438C111.645 15.4438 107.809 17.7244 107.809 22.9095C107.809 33.1721 123.566 27.676 123.566 33.4831C123.566 35.2453 122.633 36.0746 120.353 36.0746C117.657 36.0746 116.001 35.038 115.791 32.3428ZM122.218 64.269C124.706 64.269 126.78 66.3422 126.78 68.8302C126.78 71.3181 124.706 73.3913 122.218 73.3913C119.731 73.3913 117.657 71.4217 117.657 68.8302C117.668 67.6239 118.152 66.4701 119.005 65.6171C119.858 64.7641 121.012 64.28 122.218 64.269ZM126.054 68.8321C126.054 66.7588 124.397 65.1002 122.218 65.1002C120.042 65.1002 118.383 66.7588 118.383 68.8321C118.383 70.9053 120.145 72.6676 122.218 72.6676C122.723 72.6689 123.222 72.5705 123.688 72.3782C124.154 72.1859 124.577 71.9034 124.933 71.547C125.29 71.1906 125.572 70.7673 125.765 70.3014C125.957 69.8354 126.055 69.3361 126.054 68.8321ZM120.664 71.1126V66.5515H121.906C123.15 66.5515 124.084 66.8625 124.084 68.0028C124.084 68.523 123.773 68.9357 123.048 69.3504L123.877 71.1126H123.048L122.322 69.765H121.596V71.1126H120.664ZM123.048 68.0028C123.048 67.6918 122.631 67.4845 121.596 67.4845V68.6247C122.322 68.6247 123.048 68.6247 123.048 68.0028Z" fill="#A50716"/>
</svg>
