<svg width="150" height="75" viewBox="0 0 150 75" fill="none" xmlns="http://www.w3.org/2000/svg">
<path d="M80.5281 0.633828C80.0393 0.709225 79.5694 2.50913 78.6247 3.44677C77.9338 4.12349 77.0714 4.08115 76.6133 4.91776C76.4394 5.23031 76.4957 5.76382 76.2983 6.27608C75.9129 7.3006 74.5548 7.39219 74.5548 8.50846C74.5501 9.71396 75.6874 9.94419 76.672 10.7995C77.4404 11.4881 77.5157 11.9627 78.4461 12.2963C79.2405 12.5667 80.4224 11.683 81.4869 12.0003C82.3611 12.2612 83.1975 12.4491 83.3951 13.3468C83.5688 14.174 83.3832 15.4569 82.3235 15.309C81.9662 15.269 80.4177 14.7473 78.5144 14.9494C76.2184 15.2103 73.5982 15.9597 73.3422 18.519C73.2012 19.95 74.9706 21.6372 76.679 21.2941C77.8609 21.0614 77.3018 19.6681 77.9456 18.9913C78.7891 18.1243 83.5688 22.0179 88.0125 22.0179C89.883 22.0179 91.2741 21.5456 92.656 20.0981C92.785 19.9876 92.9426 19.7503 93.1423 19.7361C93.3304 19.7503 93.6593 19.9358 93.7674 20.0158C97.3463 22.892 100.051 28.6611 113.203 28.7292C115.053 28.7385 117.16 29.6222 118.88 31.1918C120.415 32.6112 121.313 34.8176 122.184 37.0571C123.5 40.4175 125.86 43.6862 129.436 47.3238C129.631 47.5188 132.576 49.8077 132.811 49.9792C132.848 50.0027 133.064 50.5196 132.989 50.8086C132.902 52.9893 132.585 59.3316 137.313 59.6183C138.469 59.677 138.166 58.864 138.166 58.3047C138.164 57.2002 137.962 56.1029 138.544 54.9726C139.341 53.4171 136.855 52.7002 136.928 49.3376C136.979 46.8303 134.874 47.2579 133.805 45.3475C133.189 44.2406 132.641 43.6533 132.681 42.2996C132.921 34.6815 131.06 29.6761 130.132 28.4472C129.408 27.519 128.809 27.1501 129.471 26.72C133.417 24.114 134.312 21.6888 134.312 21.6888C136.411 16.7565 138.298 12.2516 140.899 10.2686C141.423 9.85952 142.767 8.85626 143.592 8.4614C146.019 7.31696 147.298 6.62388 148.003 5.93756C149.119 4.84962 150 2.58199 148.931 1.20731C147.601 -0.48936 145.3 0.85715 144.285 1.45863C137.031 5.76382 135.962 13.3585 133.45 17.72C131.445 21.2047 128.186 23.7638 125.272 23.973C123.087 24.1351 120.732 23.6933 118.387 22.6641C112.684 20.1639 109.563 16.9352 108.828 16.3642C107.296 15.1821 95.4005 3.50547 85.7636 3.02847C85.7636 3.02847 84.5677 0.633997 84.2668 0.594022C83.5617 0.504625 82.8405 2.02504 82.3235 2.20147C81.837 2.36339 81.0193 0.554046 80.5281 0.633997M38.1034 70.3244C37.1963 70.3032 36.4256 69.5583 36.4256 68.6372L36.428 38.5775H26.5208V71.7131C26.5208 73.3369 27.8366 74.6624 29.451 74.6624H46.7674C48.3934 74.6624 49.693 73.3369 49.693 71.7131V38.5775H39.7953L39.7859 68.6372C39.7859 69.5583 39.015 70.3032 38.1034 70.3244ZM71.2743 38.5775H56.2797C54.5056 38.5775 53.0604 40.0203 53.0604 41.8133V74.6622H62.9766V44.5299C62.9837 43.6064 63.7309 42.8756 64.6522 42.8756C65.5781 42.8756 66.3205 43.5899 66.3416 44.5041V74.6624H76.2182V44.5038C76.23 43.5897 76.9725 42.8754 77.896 42.8754C78.8126 42.8754 79.5692 43.6063 79.5763 44.5298V74.6624H89.4927V41.8133C89.4927 40.0203 88.0452 38.5775 86.2711 38.5775H71.2743ZM13.2627 44.5932C13.2698 43.5897 12.4521 42.8754 11.5849 42.8754H9.9024V61.1269H11.5849C12.4591 61.1269 13.2699 60.4313 13.2627 59.4328V44.5932ZM19.9106 65.594H9.9024V74.6624H0V38.5775H19.9742C21.7623 38.5775 23.158 40.0297 23.158 41.8275V62.3442C23.158 64.1443 21.7083 65.594 19.9106 65.594ZM123.475 66.5927C121.484 66.5927 119.813 68.3129 119.813 70.3973C119.813 72.4887 121.484 74.1946 123.538 74.1946C125.575 74.1946 127.225 72.4887 127.225 70.3973C127.225 68.3081 125.575 66.5927 123.538 66.5927H123.475ZM127.935 70.3855C127.935 72.8363 125.97 74.8292 123.538 74.8292C121.08 74.8292 119.106 72.8506 119.106 70.3855C119.106 67.9674 121.08 65.9466 123.465 65.9466C125.97 65.9466 127.935 67.9065 127.935 70.3855Z" fill="#E63129"/>
<path d="M123.08 70.1034C123.768 70.1034 124.13 69.859 124.13 69.3704C124.13 68.9355 123.78 68.7124 123.11 68.7124H122.913V70.1034H123.08ZM125.615 72.9562H124.433L122.913 70.9329V72.9562H121.947V67.8405H122.962C124.342 67.8405 125.075 68.3622 125.075 69.3585C125.075 70.0235 124.642 70.6135 124.038 70.7896L123.968 70.8155L125.615 72.9562ZM106.118 61.1339V44.518C106.095 43.5991 105.355 42.8942 104.431 42.8942C103.517 42.8942 102.76 43.6273 102.753 44.5438V61.1339H106.118ZM106.118 74.6623V65.6034H102.753V74.6623H92.8557V41.8132C92.8557 40.0202 94.3007 38.5774 96.075 38.5774H112.797C114.576 38.5774 116.021 40.0202 116.021 41.8132V74.6621L106.118 74.6623Z" fill="#E63129"/>
</svg>
