<svg width="150" height="48" viewBox="0 0 150 48" fill="none" xmlns="http://www.w3.org/2000/svg">
<path d="M52.0843 23.5492C52.0843 29.1653 52.0843 34.7813 52.0843 40.3869C52.0843 42.077 51.9373 43.7356 50.8666 45.1527C49.376 47.1262 47.3395 47.6301 45.0511 47.1682C42.6892 46.6958 41.0306 44.7118 40.8731 41.8461C40.6842 38.4239 40.7786 34.9808 40.7681 31.5482C40.7577 27.4332 40.7681 27.4332 36.7582 27.4332C33.3255 27.4332 29.8824 27.4962 26.4498 27.4017C25.0011 27.3597 24.6022 27.8216 24.6337 29.2387C24.7177 33.1753 24.6757 37.1118 24.6547 41.0483C24.6442 43.4732 23.8149 45.5096 21.5895 46.6958C18.3668 48.4069 14.5143 46.6958 13.664 43.1582C13.391 42.035 13.3491 40.8383 13.3491 39.6731C13.3281 28.9448 13.3386 18.227 13.3386 7.49873C13.3386 6.74292 13.3596 5.98711 13.4645 5.2418C13.9159 1.67269 15.8894 -0.0908604 19.2591 0.00361579C22.4188 0.098092 24.5182 2.27104 24.6547 5.73517C24.7492 8.32802 24.6757 10.9314 24.6757 13.5242C24.6757 17.6077 24.6757 17.6077 28.6752 17.6077C32.1078 17.6077 35.551 17.5447 38.9836 17.6392C40.3902 17.6812 40.8521 17.2823 40.8101 15.8441C40.7052 12.5794 40.6947 9.30427 40.8101 6.03959C40.9361 2.29204 42.9726 0.098092 46.1638 0.00361579C49.8379 -0.101358 52.0003 2.08209 52.0948 6.19705C52.1788 10.2175 52.1158 14.238 52.1158 18.2585C52.0843 20.0326 52.0843 21.7856 52.0843 23.5492Z" fill="#458500"/>
<path d="M126.258 15.1197C130.258 12.0545 134.32 11.4561 138.582 12.3169C144.713 13.5556 148.649 18.0065 149.657 25.3231C150.549 31.8 149.919 38.1194 145.122 43.1896C140.598 47.9869 133.134 48.7217 127.665 45.0267C126.657 44.3443 126.048 43.5885 125.114 45.3311C124.117 47.1891 122.059 47.5985 120.033 47.1996C118.154 46.8322 116.884 45.6145 116.454 43.7355C116.202 42.6123 116.128 41.4156 116.128 40.2609C116.107 29.2806 116.107 18.3004 116.118 7.32016C116.118 6.39639 116.118 5.47263 116.233 4.55936C116.622 1.56761 118.564 -0.0804727 121.503 0.0245008C124.211 0.118977 126.111 1.94552 126.216 4.87428C126.353 8.11796 126.258 11.3721 126.258 15.1197Z" fill="#458400"/>
<path d="M74.0972 32.9759C71.4414 32.9759 69.174 33.0284 66.9171 32.9549C65.4999 32.9129 65.164 33.3538 65.6049 34.729C66.8856 38.6865 71.053 40.492 74.937 38.655C76.7111 37.8152 78.0337 36.398 79.4614 35.1174C81.3404 33.4378 83.7338 33.1754 85.3924 34.435C86.967 35.6317 87.3449 37.8677 86.1692 40.1246C83.8703 44.544 79.8183 46.4545 75.1785 47.0949C70.5596 47.7352 65.9723 47.3993 61.8468 44.8484C55.7899 41.1114 53.113 33.6267 54.7716 25.1554C55.9788 18.9724 59.3695 14.4691 65.4894 12.7895C72.0083 10.984 78.3172 11.5298 83.3664 16.7995C86.1692 19.7178 87.4184 23.2974 87.2819 27.3178C87.1769 30.572 85.7073 32.1886 82.4741 32.724C79.5664 33.2069 76.6271 32.8919 74.0972 32.9759Z" fill="#458500"/>
<path d="M99.3539 14.5738C102.986 10.7108 108.287 11.75 111.363 13.5766C113.798 15.0252 114.67 17.4186 113.704 19.77C112.728 22.1319 110.481 23.0347 107.668 22.2054C102.86 20.7778 101.359 21.775 100.54 26.7927C99.8578 31.0442 100.204 35.3061 100.11 39.568C100.089 40.5758 100.152 41.594 100.005 42.5703C99.5323 45.625 97.4434 47.378 94.5041 47.2836C91.7538 47.1996 89.8118 45.3416 89.5808 42.2763C89.4024 39.9459 89.4654 37.5945 89.4654 35.2536C89.4654 29.564 89.4549 23.8745 89.5179 18.1744C89.5389 15.6341 90.1162 13.2931 92.814 12.2434C95.1234 11.3721 97.1914 12.1489 99.3539 14.5738Z" fill="#458500"/>
<path d="M0.00685503 29.6271C0.00685503 25.6906 -0.014139 21.7541 0.017353 17.8176C0.0488451 14.1855 1.96986 12.044 5.15056 12.0021C8.42573 11.9601 10.5357 14.175 10.5567 17.8701C10.5987 25.6591 10.6092 33.4376 10.5567 41.2267C10.5357 45.1422 8.47822 47.3361 5.08757 47.2942C1.86489 47.2522 0.0278497 45.0477 0.00685503 41.1742C-0.00364233 37.3322 0.00685503 33.4796 0.00685503 29.6271Z" fill="#458500"/>
<path d="M5.21344 0.433987C8.32066 0.391998 10.4936 2.42848 10.5671 5.43073C10.6406 8.60093 8.48862 10.8159 5.32891 10.8369C2.16921 10.8684 0.0592438 8.88436 0.00675701 5.84012C-0.0562271 2.62793 2.03275 0.475976 5.21344 0.433987Z" fill="#458501"/>
<path d="M126.678 30.4983C126.71 27.3071 127.077 24.8508 128.778 22.8038C131.623 19.3816 136.378 19.938 138.215 23.9795C139.653 27.1392 139.737 30.4773 138.729 33.784C137.816 36.8072 135.696 38.3923 132.893 38.3294C130.101 38.2664 128.043 36.6078 127.203 33.5741C126.867 32.3879 126.783 31.1177 126.678 30.4983Z" fill="#FEFEFE"/>
<path d="M70.7275 25.7537C69.8142 25.7537 68.8904 25.7957 67.9771 25.7432C67.1689 25.7012 65.9931 26.1526 65.6362 25.4808C65.1534 24.5885 65.9512 23.5808 66.4655 22.7515C67.7357 20.7045 69.6462 19.8542 72.0186 20.2321C74.2966 20.589 75.6822 22.0481 76.4275 24.1791C76.8369 25.3443 76.5745 25.8587 75.2308 25.7747C73.7297 25.6907 72.2286 25.7537 70.7275 25.7537Z" fill="#FDFDFC"/>
</svg>
