<svg width="150" height="61" viewBox="0 0 150 61" fill="none" xmlns="http://www.w3.org/2000/svg">
<path d="M19.3964 13.1133C8.81638 13.1133 0 17.6013 0 31.1433C0 41.8715 5.92845 48.627 19.6691 48.627C35.8429 48.627 36.8796 37.9729 36.8796 37.9729H29.0429C29.0429 37.9729 27.3627 43.7097 19.1913 43.7097C12.5359 43.7097 7.74917 39.2137 7.74917 32.9125H37.6996V28.9578C37.6996 22.7237 33.742 13.1133 19.3964 13.1133ZM19.1227 18.1672C25.458 18.1672 29.7769 22.0482 29.7769 27.8651H7.92228C7.92228 21.6895 13.56 18.1672 19.1227 18.1672Z" fill="#E53238"/>
<path d="M37.694 0V41.8264C37.694 44.2005 37.5244 47.5342 37.5244 47.5342H44.9989C44.9989 47.5342 45.2676 45.1401 45.2676 42.9516C45.2676 42.9516 48.9605 48.7295 59.0022 48.7295C69.5763 48.7295 76.7591 41.3876 76.7591 30.8701C76.7591 21.0851 70.1617 13.2153 59.0192 13.2153C48.5853 13.2153 45.3431 18.8496 45.3431 18.8496V0H37.694ZM57.09 18.3888C64.2707 18.3888 68.8373 23.7183 68.8373 30.8701C68.8373 38.5392 63.5633 43.556 57.1415 43.556C49.4774 43.556 45.3431 37.5716 45.3431 30.9381C45.3431 24.757 49.0526 18.3888 57.09 18.3888Z" fill="#0064D2"/>
<path d="M95.3361 13.1133C79.4195 13.1133 78.3988 21.8281 78.3988 23.221H86.3211C86.3211 23.221 86.7364 18.1331 94.7897 18.1331C100.023 18.1331 104.078 20.5287 104.078 25.1333V26.7724H94.7897C82.459 26.7724 75.9402 30.3798 75.9402 37.7002C75.9402 44.904 81.9632 48.8236 90.1031 48.8236C101.197 48.8236 104.77 42.694 104.77 42.694C104.77 45.1321 104.958 47.5347 104.958 47.5347H112C112 47.5347 111.728 44.5567 111.728 42.6515V26.1835C111.728 15.3853 103.018 13.1133 95.3361 13.1133ZM104.078 31.6897V33.8751C104.078 36.7255 102.319 43.8122 91.9639 43.8122C86.2936 43.8122 83.8625 40.9824 83.8625 37.6997C83.8625 31.7282 92.0494 31.6897 104.078 31.6897Z" fill="#F5AF02"/>
<path d="M107.461 14.4802H116.374L129.165 40.1063L141.926 14.4802H150L126.755 60.1026H118.286L124.993 47.3847L107.461 14.4802Z" fill="#86B817"/>
</svg>
