<svg width="146" height="68" viewBox="0 0 146 68" fill="none" xmlns="http://www.w3.org/2000/svg">
<path fill-rule="evenodd" clip-rule="evenodd" d="M60.3007 30.8636L43.562 31.4597L59.4556 32.343L60.3007 30.8636ZM58.2985 34.381L41.52 34.9779L57.4728 35.8643L58.2985 34.381ZM56.2962 37.928L39.5387 38.5163L55.4721 39.4019L56.2962 37.928ZM54.3352 41.4571L37.5567 42.0547L53.4714 42.9387L54.3352 41.4571ZM74.8458 13.1093L53.4815 13.8696L74.9065 15.0602L74.8458 13.1093ZM74.7104 9.61837L55.518 10.2915L74.7711 11.3958L74.7104 9.61837ZM74.5734 6.25116L57.4736 6.8138L74.6559 7.76785L74.5734 6.25116ZM74.4583 2.79447L59.4696 3.29561L74.5174 4.1843L74.4583 2.79447ZM74.361 0H61.3248L74.3805 0.692585L74.361 0ZM52.3134 44.9846L35.5754 45.5908H51.9718L52.3134 44.9846Z" fill="#E63129"/>
<path fill-rule="evenodd" clip-rule="evenodd" d="M109.039 0.112793H84.9164L84.2324 1.32365L96.3036 1.9641C96.4452 1.9641 96.4452 2.16487 96.2429 2.16487L83.5289 2.58976L82.3025 4.73599L94.2912 5.44414C94.4523 5.46438 94.4126 5.68538 94.2718 5.68538L81.5368 6.10404L80.3516 8.15923L92.3209 8.82381C92.5823 8.84404 92.5823 9.06582 92.3209 9.06582L79.6069 9.51172L78.3999 11.6611L90.3295 12.3451C90.591 12.3653 90.5715 12.6066 90.3295 12.6066L77.6155 13.0595L76.3875 15.1824L88.3365 15.8462C88.5171 15.8664 88.5389 16.0882 88.2969 16.0882L51.6622 17.3154L86.4261 19.2468C86.6463 19.2468 86.6269 19.5285 86.3849 19.5285L49.6911 20.8367L84.455 22.7673C84.616 22.7673 84.6557 23.0288 84.4137 23.0288L47.6592 24.3564L82.4231 26.2879C82.5647 26.3081 82.704 26.5696 82.4037 26.5898L45.7075 27.8956L80.4706 29.8263C80.571 29.8465 80.6714 30.108 80.431 30.108L61.9623 30.7663L62.023 32.4332L78.4793 33.3476C78.5991 33.3678 78.6598 33.609 78.438 33.609L62.0837 34.1903L62.1638 36.0549L76.4482 36.8486C76.5883 36.8688 76.649 37.1506 76.407 37.1506L62.244 37.6478L62.3055 39.6937L74.4771 40.3699C74.6171 40.3894 74.6576 40.6508 74.4164 40.6508L62.3661 41.0812L62.4463 43.3317L72.5051 43.8904C72.6468 43.9106 72.6468 44.1527 72.4452 44.1527L62.4868 44.513L62.5272 45.4803H94.9978C103.608 45.4803 111.332 39.2034 112.781 34.2137C114.231 29.2247 114.231 24.7183 107.309 22.4654C111.173 21.5798 117.891 17.2228 119.22 11.1988C120.424 5.72584 118.413 0.133026 109.039 0.112793ZM92.7061 35.0533H82.7282L88.3607 25.0747H95.7643C103.409 25.0747 99.7066 35.0533 92.7061 35.0533ZM105.621 13.6462C105.299 14.8532 102.883 17.9115 99.8272 17.9115H92.4236L97.1705 9.54285H100.953C105.78 9.70393 105.941 12.44 105.621 13.6462ZM145.589 59.9397C145.589 56.0729 142.375 52.8341 138.508 52.8341C134.541 52.8341 131.302 56.1243 131.302 60.1662C131.298 61.1169 131.482 62.0591 131.844 62.9382C132.206 63.8174 132.739 64.6162 133.411 65.2884C134.083 65.9607 134.882 66.4931 135.761 66.8551C136.64 67.217 137.583 67.4012 138.533 67.3971C141.47 67.3971 144.257 65.3886 145.086 62.6517H141.42C140.691 63.8065 139.739 64.3334 138.431 64.3334C136.775 64.3334 135.295 63.2034 134.817 61.5965H145.412C145.539 60.8191 145.589 60.4417 145.589 59.9397ZM134.717 58.9717C135.194 57.0884 136.701 55.883 138.558 55.883C140.417 55.883 141.873 57.0635 142.325 58.9717H134.717ZM97.9907 53.5041V54.6317C96.937 53.5018 95.4103 52.859 93.7776 52.859C90.1622 52.859 87.0798 55.9468 87.0798 59.9646C87.0798 63.7552 89.8065 67.1551 93.8492 67.1551C95.632 67.1551 96.9876 66.7434 98.2678 65.2874V67.0702H101.332V53.5041H97.9907ZM94.2484 64.2797C93.1318 64.2797 92.0608 63.8361 91.2712 63.0465C90.4816 62.2569 90.038 61.186 90.038 60.0693C90.038 58.9526 90.4816 57.8817 91.2712 57.0921C92.0608 56.3025 93.1318 55.8589 94.2484 55.8589C95.3651 55.8589 96.436 56.3025 97.2256 57.0921C98.0152 57.8817 98.4588 58.9526 98.4588 60.0693C98.4588 61.186 98.0152 62.2569 97.2256 63.0465C96.436 63.8361 95.3651 64.2797 94.2484 64.2797ZM6.67917 52.8333C5.29867 52.8333 4.24423 53.3104 3.08862 54.4909V53.1602H0V67.0702H3.33997V60.5164C3.33997 58.7343 3.49016 55.8963 5.95079 55.8963C8.26044 55.8963 8.5118 58.5577 8.5118 60.265V67.0695H11.851V59.6121C11.851 57.6534 11.7008 56.725 11.1732 55.62C10.395 53.9633 8.56238 52.8333 6.67917 52.8333ZM27.4287 59.9397C27.4287 56.0729 24.2148 52.8341 20.348 52.8341C16.3808 52.8341 13.142 56.1243 13.142 60.1662C13.1381 61.1168 13.3225 62.0589 13.6845 62.9379C14.0465 63.817 14.5789 64.6157 15.2512 65.2879C15.9234 65.9602 16.7221 66.4926 17.6011 66.8546C18.4802 67.2166 19.4222 67.401 20.3729 67.3971C23.3106 67.3971 26.0972 65.3886 26.926 62.6517H23.2608C22.5324 63.8065 21.5783 64.3334 20.2725 64.3334C18.6158 64.3334 17.1341 63.2034 16.6571 61.5965H27.2521C27.3789 60.8191 27.4287 60.4417 27.4287 59.9397ZM16.5575 58.9717C17.0345 57.0884 18.5411 55.883 20.3994 55.883C22.2577 55.883 23.7137 57.0635 24.1658 58.9717H16.5575ZM82.3725 67.0586H85.7117V48.5035H82.3725V67.0586ZM110.142 52.8333C108.761 52.8333 107.706 53.3104 106.551 54.4909V53.1602H103.462V67.0702H106.803V60.5164C106.803 58.7343 106.953 55.8963 109.414 55.8963C111.723 55.8963 111.975 58.5577 111.975 60.265V67.0695H115.314V59.6121C115.314 57.6534 115.164 56.725 114.636 55.62C113.858 53.9633 112.025 52.8333 110.142 52.8333ZM123.65 55.897C125.181 55.897 126.059 56.3998 126.889 57.8052H130.654C129.625 54.8177 126.989 52.8333 123.774 52.8333C119.707 52.8333 116.442 56.0721 116.442 60.065C116.442 64.082 119.732 67.3963 123.774 67.3963C124.805 67.3909 125.824 67.1717 126.766 66.7524C127.708 66.3332 128.553 65.723 129.247 64.9606C129.951 64.1824 130.202 63.7303 130.654 62.5007H126.889C126.109 63.7054 125.106 64.3326 123.851 64.3326C121.514 64.3326 119.783 62.5249 119.783 60.114C119.783 57.6799 121.44 55.897 123.65 55.897ZM40.1925 61.6471L37.8276 53.1609H35.1405L32.75 61.6471L29.9228 53.1609H26.9766L31.6208 67.0702H33.76L36.472 58.0573L39.1077 67.0702H41.3528L45.8064 53.1609H43.0453L40.1925 61.6471ZM58.0838 52.8481C56.4519 52.8481 54.9251 53.4909 53.8707 54.62V48.5043H50.5307V67.0586H53.5937V65.2765C54.8746 66.7325 56.2302 67.1434 58.013 67.1434C62.0557 67.1434 64.7824 63.7443 64.7824 59.9529C64.7832 55.936 61.7 52.8481 58.0838 52.8481ZM57.613 64.2797C56.4963 64.2797 55.4254 63.8361 54.6358 63.0465C53.8462 62.2569 53.4026 61.186 53.4026 60.0693C53.4026 58.9526 53.8462 57.8817 54.6358 57.0921C55.4254 56.3025 56.4963 55.8589 57.613 55.8589C58.7297 55.8589 59.8006 56.3025 60.5902 57.0921C61.3798 57.8817 61.8234 58.9526 61.8234 60.0693C61.8234 61.186 61.3798 62.2569 60.5902 63.0465C59.8006 63.8361 58.7297 64.2797 57.613 64.2797ZM76.8015 53.5041V54.6317C75.7471 53.5018 74.221 52.859 72.5884 52.859C68.9729 52.859 65.889 55.9468 65.889 59.9646C65.889 63.7552 68.6165 67.1551 72.6584 67.1551C74.4413 67.1551 75.7969 66.7434 77.0778 65.2874V67.0702H80.1407V53.5041H76.8015ZM73.06 64.2797C71.9433 64.2797 70.8724 63.8361 70.0828 63.0465C69.2932 62.2569 68.8496 61.186 68.8496 60.0693C68.8496 58.9526 69.2932 57.8817 70.0828 57.0921C70.8724 56.3025 71.9433 55.8589 73.06 55.8589C74.1766 55.8589 75.2476 56.3025 76.0372 57.0921C76.8268 57.8817 77.2704 58.9526 77.2704 60.0693C77.2704 61.186 76.8268 62.2569 76.0372 63.0465C75.2476 63.8361 74.1766 64.2797 73.06 64.2797Z" fill="#E63129"/>
</svg>
