<svg width="8" height="5" viewBox="0 0 8 5" fill="none" xmlns="http://www.w3.org/2000/svg">
<path d="M4.31216 4.86424L7.8722 1.07685C7.9546 0.989247 8 0.872312 8 0.747627C8 0.622941 7.9546 0.506006 7.8722 0.418408L7.61008 0.139492C7.43929 -0.0419999 7.1617 -0.0419999 6.99116 0.139492L4.00166 3.31986L1.00884 0.135964C0.926432 0.0483657 0.816579 0 0.699441 0C0.582174 0 0.472322 0.0483657 0.389851 0.135964L0.127804 0.414879C0.0453978 0.502546 4.76837e-07 0.619413 4.76837e-07 0.744098C4.76837e-07 0.868783 0.0453978 0.985719 0.127804 1.07332L3.69109 4.86424C3.77376 4.95205 3.88413 5.00028 4.00146 5C4.11925 5.00028 4.22956 4.95205 4.31216 4.86424Z" fill="#7D7D7D"/>
<path d="M4.31216 4.86424L7.8722 1.07685C7.9546 0.989247 8 0.872312 8 0.747627C8 0.622941 7.9546 0.506006 7.8722 0.418408L7.61008 0.139492C7.43929 -0.0419999 7.1617 -0.0419999 6.99116 0.139492L4.00166 3.31986L1.00884 0.135964C0.926432 0.0483657 0.816579 0 0.699441 0C0.582174 0 0.472322 0.0483657 0.389851 0.135964L0.127804 0.414879C0.0453978 0.502546 4.76837e-07 0.619413 4.76837e-07 0.744098C4.76837e-07 0.868783 0.0453978 0.985719 0.127804 1.07332L3.69109 4.86424C3.77376 4.95205 3.88413 5.00028 4.00146 5C4.11925 5.00028 4.22956 4.95205 4.31216 4.86424Z" stroke="white"/>
</svg>
