<svg width="40" height="37" viewBox="0 0 40 37" fill="none" xmlns="http://www.w3.org/2000/svg">
<path d="M11.1643 23.7542C14.2943 24.0742 17.4543 24.0742 20.5843 23.7542C20.6477 23.7477 20.7118 23.7564 20.7712 23.7798C20.8306 23.8031 20.8836 23.8403 20.9256 23.8882C20.9677 23.9362 20.9977 23.9935 21.0131 24.0554C21.0286 24.1174 21.0289 24.1821 21.0143 24.2442C19.9843 28.7841 18.1343 31.8442 16.0143 32.0042H15.8743V31.9942H15.7143C13.5943 31.8542 11.7543 28.7841 10.7243 24.2442C10.7091 24.1812 10.7096 24.1154 10.7255 24.0526C10.7414 23.9898 10.7723 23.9318 10.8156 23.8836C10.8589 23.8354 10.9132 23.7985 10.974 23.7759C11.0347 23.7534 11.1 23.7459 11.1643 23.7542ZM30.3343 20.9842C30.4058 20.944 30.488 20.9268 30.5697 20.935C30.6513 20.9431 30.7285 20.9762 30.7907 21.0297C30.853 21.0832 30.8972 21.1545 30.9176 21.234C30.9379 21.3135 30.9332 21.3974 30.9043 21.4742C30.0992 23.6655 28.8271 25.6555 27.1764 27.3063C25.5256 28.957 23.5356 30.2291 21.3443 31.0342C21.267 31.0664 21.1815 31.0736 21.0999 31.0547C21.0183 31.0358 20.9447 30.9918 20.8895 30.9288C20.8342 30.8658 20.8001 30.7871 20.792 30.7038C20.7839 30.6204 20.8022 30.5366 20.8443 30.4642C22.0064 28.3395 22.801 26.0337 23.1943 23.6442C23.2084 23.5661 23.2454 23.494 23.3006 23.437C23.3558 23.38 23.4267 23.3407 23.5043 23.3242C25.9043 22.9242 28.2043 22.1442 30.3343 20.9842ZM1.65425 20.9842C3.78329 22.1423 6.09229 22.9334 8.48425 23.3242C8.56183 23.3407 8.63273 23.38 8.68793 23.437C8.74313 23.494 8.78014 23.5661 8.79425 23.6442C9.19425 26.0342 9.97425 28.3442 11.1443 30.4642C11.1863 30.5366 11.2046 30.6204 11.1965 30.7038C11.1884 30.7871 11.1543 30.8658 11.0991 30.9288C11.0438 30.9918 10.9702 31.0358 10.8886 31.0547C10.807 31.0736 10.7215 31.0664 10.6443 31.0342C8.45293 30.2291 6.46291 28.957 4.81214 27.3063C3.16137 25.6555 1.88935 23.6655 1.08425 21.4742C1.05199 21.3969 1.0448 21.3114 1.0637 21.2298C1.0826 21.1482 1.12664 21.0746 1.1896 21.0194C1.25257 20.9641 1.33129 20.93 1.41465 20.9219C1.49801 20.9138 1.58182 20.9321 1.65425 20.9742V20.9842ZM15.8743 10.0042C17.6443 10.0042 19.4243 10.1041 21.1843 10.3441C21.2734 10.3547 21.3564 10.395 21.4199 10.4585C21.4834 10.522 21.5237 10.605 21.5343 10.6941C21.9943 14.2141 21.9943 17.7942 21.5343 21.3142C21.522 21.4027 21.4812 21.4847 21.418 21.5479C21.3548 21.6111 21.2728 21.6519 21.1843 21.6642C17.6543 22.1341 14.0843 22.1341 10.5643 21.6642C10.4748 21.6561 10.3906 21.6182 10.3253 21.5566C10.26 21.4949 10.2174 21.413 10.2043 21.3242C9.76425 17.7941 9.76425 14.2241 10.2043 10.6941C10.2148 10.605 10.2551 10.522 10.3186 10.4585C10.3821 10.395 10.4651 10.3547 10.5543 10.3441C12.3143 10.1241 14.0943 10.0142 15.8743 10.0042ZM7.97425 10.9542C8.07425 11.0442 8.12425 11.1642 8.11425 11.2942C7.79483 14.426 7.79483 17.5823 8.11425 20.7142C8.12075 20.7776 8.11197 20.8417 8.08865 20.9011C8.06532 20.9605 8.02813 21.0135 7.98017 21.0555C7.93221 21.0976 7.87488 21.1276 7.81296 21.143C7.75105 21.1585 7.68634 21.1588 7.62425 21.1442C-2.37575 18.9042 -2.70575 13.2842 7.62425 10.8642C7.68634 10.8519 7.75044 10.8546 7.81129 10.872C7.87213 10.8894 7.92798 10.921 7.97425 10.9642V10.9542ZM24.2943 10.8541L24.3743 10.8642C34.6943 13.2842 34.3743 18.9042 24.3643 21.1442C24.3022 21.1588 24.2375 21.1585 24.1755 21.143C24.1136 21.1276 24.0563 21.0976 24.0083 21.0555C23.9604 21.0135 23.9232 20.9605 23.8999 20.9011C23.8765 20.8417 23.8678 20.7776 23.8743 20.7142C24.1943 17.5842 24.1943 14.4242 23.8743 11.2942C23.8672 11.2296 23.876 11.1643 23.8998 11.1039C23.9237 11.0436 23.9619 10.9899 24.0111 10.9476C24.0603 10.9052 24.1191 10.8755 24.1824 10.861C24.2456 10.8465 24.3115 10.8475 24.3743 10.8642L24.2943 10.8541ZM21.3243 0.97415C23.5174 1.77802 25.5094 3.0495 27.162 4.70033C28.8145 6.35117 30.0881 8.34182 30.8943 10.5342C30.9265 10.6114 30.9337 10.6969 30.9148 10.7785C30.8959 10.8601 30.8519 10.9337 30.7889 10.9889C30.7259 11.0442 30.6472 11.0783 30.5639 11.0864C30.4805 11.0945 30.3967 11.0762 30.3243 11.0342C28.1959 9.87249 25.8868 9.07802 23.4943 8.68415C23.4167 8.66757 23.3458 8.62829 23.2906 8.57131C23.2354 8.51433 23.1984 8.44222 23.1843 8.36415C22.7843 5.97415 21.9943 3.66415 20.8343 1.53415C20.7958 1.46191 20.7804 1.37962 20.7902 1.29837C20.8 1.21712 20.8345 1.14083 20.889 1.07979C20.9435 1.01875 21.0154 0.975888 21.095 0.956998C21.1746 0.938108 21.2581 0.944095 21.3343 0.97415H21.3243ZM10.6643 0.97415C10.7398 0.947175 10.8218 0.943556 10.8994 0.963766C10.9771 0.983975 11.0469 1.02708 11.0997 1.08747C11.1526 1.14787 11.186 1.22276 11.1958 1.30242C11.2055 1.38208 11.191 1.46282 11.1543 1.53415C9.98911 3.66191 9.19125 5.97097 8.79425 8.36415C8.78014 8.44222 8.74313 8.51433 8.68793 8.57131C8.63273 8.62829 8.56183 8.66757 8.48425 8.68415C6.08425 9.08415 3.78425 9.86415 1.65425 11.0241L1.57425 11.0641C1.50214 11.0865 1.42517 11.088 1.35225 11.0684C1.27934 11.0488 1.21344 11.009 1.16219 10.9536C1.11094 10.8982 1.07642 10.8294 1.06263 10.7551C1.04884 10.6809 1.05634 10.6043 1.08425 10.5342C1.89042 8.34182 3.16397 6.35117 4.81653 4.70033C6.4691 3.0495 8.46108 1.77802 10.6543 0.97415H10.6643ZM16.0243 0.00415039C18.1343 0.14415 19.9843 3.22415 21.0143 7.75415C21.0309 7.81691 21.0319 7.88277 21.0174 7.94604C21.0029 8.00931 20.9732 8.0681 20.9308 8.11732C20.8885 8.16654 20.8348 8.20472 20.7745 8.22856C20.7141 8.2524 20.6488 8.26118 20.5843 8.25415C17.4524 7.93473 14.2961 7.93473 11.1643 8.25415C11.0997 8.26118 11.0344 8.2524 10.9741 8.22856C10.9137 8.20472 10.86 8.16654 10.8177 8.11732C10.7753 8.0681 10.7456 8.00931 10.7311 7.94604C10.7166 7.88277 10.7176 7.81691 10.7343 7.75415C11.7543 3.23415 13.5943 0.16415 15.7143 0.0141504H16.0143L16.0243 0.00415039Z" fill="#80E9FF"/>
<path d="M34.8641 14.9441C36.6541 14.9441 37.2941 15.1341 37.9441 15.4741C38.6041 15.8241 39.1141 16.3341 39.4641 16.9941C39.8041 17.6441 39.9941 18.2941 39.9941 20.0741V31.8141C39.9941 33.6041 39.8041 34.2441 39.4641 34.8941C39.1226 35.5426 38.5926 36.0725 37.9441 36.4141C37.2941 36.7541 36.6441 36.9441 34.8641 36.9441H13.1241C11.3341 36.9441 10.6941 36.7541 10.0441 36.4141C9.39564 36.0725 8.86573 35.5426 8.52414 34.8941C8.19414 34.2441 7.99414 33.5941 7.99414 31.8141V20.0741C7.99414 18.2841 8.18414 17.6441 8.52414 16.9941C8.87414 16.3341 9.38414 15.8241 10.0441 15.4741C10.6941 15.1341 11.3441 14.9441 13.1241 14.9441H34.8641ZM23.9941 20.9441C22.6681 20.9441 21.3963 21.4709 20.4586 22.4086C19.5209 23.3462 18.9941 24.618 18.9941 25.9441C18.9941 27.2702 19.5209 28.5419 20.4586 29.4796C21.3963 30.4173 22.6681 30.9441 23.9941 30.9441C25.3202 30.9441 26.592 30.4173 27.5297 29.4796C28.4674 28.5419 28.9941 27.2702 28.9941 25.9441C28.9941 24.618 28.4674 23.3462 27.5297 22.4086C26.592 21.4709 25.3202 20.9441 23.9941 20.9441Z" fill="black"/>
<path d="M34.8641 14.9441C36.6541 14.9441 37.2941 15.1341 37.9441 15.4741C38.6041 15.8241 39.1141 16.3341 39.4641 16.9941C39.8041 17.6441 39.9941 18.2941 39.9941 20.0741V31.8141C39.9941 33.6041 39.8041 34.2441 39.4641 34.8941C39.1226 35.5426 38.5926 36.0725 37.9441 36.4141C37.2941 36.7541 36.6441 36.9441 34.8641 36.9441H13.1241C11.3341 36.9441 10.6941 36.7541 10.0441 36.4141C9.39564 36.0725 8.86573 35.5426 8.52414 34.8941C8.19414 34.2441 7.99414 33.5941 7.99414 31.8141V20.0741C7.99414 18.2841 8.18414 17.6441 8.52414 16.9941C8.87414 16.3341 9.38414 15.8241 10.0441 15.4741C10.6941 15.1341 11.3441 14.9441 13.1241 14.9441H34.8641ZM23.9941 20.9441C22.6681 20.9441 21.3963 21.4709 20.4586 22.4086C19.5209 23.3462 18.9941 24.618 18.9941 25.9441C18.9941 27.2702 19.5209 28.5419 20.4586 29.4796C21.3963 30.4173 22.6681 30.9441 23.9941 30.9441C25.3202 30.9441 26.592 30.4173 27.5297 29.4796C28.4674 28.5419 28.9941 27.2702 28.9941 25.9441C28.9941 24.618 28.4674 23.3462 27.5297 22.4086C26.592 21.4709 25.3202 20.9441 23.9941 20.9441Z" fill="#7A73FF"/>
</svg>
