<svg width="56" height="56" viewBox="0 0 56 56" fill="none" xmlns="http://www.w3.org/2000/svg">
<circle cx="28" cy="28" r="28" fill="#F1F6FF"/>
<g clip-path="url(#clip0_234_123)">
<path d="M33.1112 20.153C32.8541 20.153 32.6029 20.2292 32.3892 20.372C32.1754 20.5148 32.0089 20.7178 31.9105 20.9553C31.8121 21.1927 31.7864 21.454 31.8366 21.7061C31.8867 21.9582 32.0105 22.1898 32.1922 22.3715C32.374 22.5533 32.6055 22.6771 32.8576 22.7272C33.1097 22.7774 33.371 22.7516 33.6085 22.6532C33.846 22.5549 34.0489 22.3883 34.1917 22.1746C34.3345 21.9609 34.4107 21.7096 34.4107 21.4526C34.4107 21.1079 34.2738 20.7774 34.0301 20.5337C33.7864 20.2899 33.4558 20.153 33.1112 20.153Z" fill="#2E526B"/>
<path d="M27.3505 21.8212C26.2727 21.8212 25.2191 22.1409 24.323 22.7399C23.4269 23.3388 22.7287 24.1901 22.3165 25.186C21.9043 26.1818 21.7968 27.2776 22.0075 28.3346C22.2182 29.3917 22.7377 30.3624 23.5003 31.1241C24.2629 31.8858 25.2342 32.4042 26.2915 32.6137C27.3488 32.8232 28.4444 32.7145 29.4398 32.3011C30.4352 31.8878 31.2857 31.1885 31.8836 30.2918C32.4815 29.395 32.8 28.341 32.7988 27.2632C32.7971 25.8193 32.2224 24.4352 31.2008 23.4148C30.1793 22.3944 28.7944 21.8212 27.3505 21.8212ZM27.3505 30.7558C26.6595 30.757 25.9837 30.5533 25.4085 30.1702C24.8333 29.7872 24.3847 29.2422 24.1194 28.6041C23.8541 27.966 23.784 27.2636 23.918 26.5857C24.0521 25.9078 24.3843 25.2848 24.8725 24.7958C25.3607 24.3067 25.983 23.9734 26.6606 23.8382C27.3383 23.7029 28.0409 23.7717 28.6794 24.0359C29.318 24.3 29.8638 24.7477 30.2479 25.3222C30.6319 25.8967 30.8369 26.5722 30.8369 27.2632C30.8394 27.7229 30.7511 28.1786 30.5771 28.6041C30.403 29.0296 30.1467 29.4165 29.8228 29.7428C29.4989 30.069 29.1138 30.3281 28.6895 30.5051C28.2653 30.6822 27.8103 30.7737 27.3505 30.7745V30.7558Z" fill="#2E526B"/>
<path d="M31.6929 38.3221H22.8458C21.0859 38.3188 19.3992 37.6178 18.1553 36.3728C16.9115 35.1278 16.2121 33.4404 16.2104 31.6805V22.8522C16.2121 21.0923 16.9115 19.4049 18.1553 18.1599C19.3992 16.9149 21.0859 16.2139 22.8458 16.2106H31.6929C33.4538 16.2122 35.1422 16.9125 36.3874 18.1577C37.6325 19.4028 38.3328 21.0912 38.3345 22.8522V31.6805C38.3328 33.4415 37.6325 35.1298 36.3874 36.375C35.1422 37.6202 33.4538 38.3204 31.6929 38.3221ZM22.8458 18.2786C21.6371 18.2819 20.4789 18.7635 19.6243 19.6182C18.7697 20.4728 18.2881 21.631 18.2848 22.8397V31.668C18.2881 32.8766 18.7697 34.0348 19.6243 34.8895C20.4789 35.7441 21.6371 36.2257 22.8458 36.229H31.6929C32.9015 36.2257 34.0597 35.7441 34.9144 34.8895C35.769 34.0348 36.2506 32.8766 36.2539 31.668V22.8522C36.2539 21.6413 35.7738 20.4799 34.9188 19.6226C34.0638 18.7653 32.9037 18.282 31.6929 18.2786H22.8458Z" fill="#2E526B"/>
</g>
<defs>
<clipPath id="clip0_234_123">
<rect width="22.1053" height="22.1053" fill="white" transform="translate(16.2104 16.2106)"/>
</clipPath>
</defs>
</svg>
