<svg width="157" height="29" viewBox="0 0 157 29" fill="none" xmlns="http://www.w3.org/2000/svg">
<g clip-path="url(#clip0_234_78)">
<path d="M1.92126 0.362432C1.48626 0.543682 0.833762 1.12368 0.507512 1.63118C-0.072488 2.50118 -0.0724881 2.68243 0.471262 3.80618C1.08751 5.11118 2.42876 5.98118 4.89376 6.70618C6.30751 7.14118 6.34376 7.17743 6.63376 9.27993C7.72126 17.0374 9.17126 20.7349 11.7088 22.4024C13.0138 23.2724 13.5938 23.3812 16.7113 23.4899C21.1338 23.6712 23.5625 23.1637 27.1513 21.3512C31.8638 18.9949 35.3438 14.5362 35.7788 10.3312C35.9963 8.11993 35.5975 7.14118 33.9663 6.16243C32.48 5.25618 30.6675 5.25618 26.245 6.19868C20.3725 7.46743 7.43126 7.57618 7.06876 6.41618C6.99626 6.16243 6.85126 5.18368 6.70626 4.24118C6.30751 1.37743 3.98751 -0.507568 1.92126 0.362432ZM3.95126 0.761183C5.29251 1.23243 5.98126 2.42868 6.34376 4.82118C6.63376 6.74243 6.63376 6.74243 4.16876 6.01743C0.652512 4.92993 -0.507488 2.21118 1.99376 0.797432C2.39251 0.579931 2.71876 0.362432 2.75501 0.362432C2.79126 0.362432 3.29876 0.543682 3.95126 0.761183ZM32.8063 7.79368C33.9663 8.91743 33.9663 10.4762 32.8063 12.9774C30.9938 16.9287 26.2813 20.4087 21.4238 21.4237C18.5963 22.0037 14.1738 21.6774 12.6513 20.8074C11.0925 19.9012 9.24376 17.1824 8.51876 14.7537C7.86626 12.6149 7.03251 7.68493 7.28626 7.46743C7.35876 7.39493 8.48251 7.57618 9.78751 7.86618C13.3763 8.69993 22.5113 8.59118 26.4625 7.68493C30.74 6.66993 31.755 6.70618 32.8063 7.79368Z" fill="#655CED"/>
<path d="M111.469 12.5063V22.1126H113.209C114.478 22.1126 114.913 21.9676 114.913 21.5688C114.913 20.8801 114.84 20.8801 116.906 21.7863C119.045 22.7288 121.546 22.5476 123.504 21.3513C127.165 19.0676 127.02 11.4188 123.25 9.24381C121.583 8.30131 117.668 8.22881 116.254 9.13506C115.746 9.49756 115.203 9.78756 115.094 9.78756C114.949 9.78756 114.913 8.22881 114.985 6.34381L115.094 2.90006H113.281H111.469V12.5063ZM121.329 11.7451C122.271 12.5788 122.344 12.7963 122.344 15.4063C122.344 18.0163 122.271 18.2338 121.329 19.0676C119.879 20.3001 117.051 20.3001 115.819 19.0313C115.021 18.2701 114.913 17.8351 114.913 15.4063C114.913 12.9776 115.021 12.5426 115.819 11.7813C117.051 10.5126 119.879 10.5126 121.329 11.7451Z" fill="black"/>
<path d="M43.1737 8.84505C40.9262 9.6063 39.8749 10.6938 39.8749 12.3251C39.8749 14.5001 41.2162 15.4063 45.9287 16.4938C48.6837 17.1463 49.2999 17.5451 49.2999 18.6688C49.2999 19.6476 47.9949 20.3001 46.0012 20.3001C44.8412 20.3001 44.2974 20.0463 43.4274 19.2126C42.5574 18.3426 42.0499 18.1251 40.7449 18.1251C39.8749 18.1251 39.1499 18.1976 39.1499 18.3063C39.1499 19.1401 40.4912 20.7713 41.6512 21.3513C44.6599 22.9101 49.6624 22.6201 51.8374 20.7713C52.7074 20.0463 52.9249 19.5751 52.9249 18.4513C52.9249 16.0951 51.5474 15.1888 46.3637 14.1376C44.1162 13.7026 42.9924 12.7963 43.3549 11.8175C44.0437 10.0413 48.5749 10.1863 49.1187 12.035C49.2999 12.5426 49.6987 12.6875 51.1487 12.6875C52.4174 12.6875 52.9249 12.5426 52.9249 12.18C52.9249 11.4188 51.5474 9.8238 50.3512 9.20755C48.7924 8.41005 45.0949 8.2288 43.1737 8.84505Z" fill="black"/>
<path d="M76.2338 8.8088C75.6175 9.0263 74.965 9.35255 74.82 9.49755C74.385 9.9688 73.95 9.8238 73.95 9.2438C73.95 8.84505 73.515 8.70005 72.3188 8.70005H70.6875V18.125V27.55H72.5H74.3125V24.2875V20.9888L75.5088 21.6413C77.285 22.5838 80.6925 22.5113 82.36 21.46C86.13 19.14 86.13 11.455 82.3963 9.3163C80.9463 8.48255 77.7563 8.19255 76.2338 8.8088ZM79.7863 11.2375C81.0188 11.9263 81.6713 13.7025 81.49 15.9863C81.3088 18.4513 80.62 19.3938 78.6263 19.9738C77.5025 20.3363 77.0675 20.3 75.8713 19.72L74.4938 19.0313L74.385 15.5875C74.2763 12.4338 74.3488 12.1075 75.0738 11.4913C75.9438 10.8025 78.6625 10.6575 79.7863 11.2375Z" fill="black"/>
<path d="M91.2774 8.66358C87.8699 9.78733 86.2749 11.9986 86.2749 15.6961C86.2749 18.5961 87.1449 20.0461 89.7187 21.3511C92.2562 22.6561 96.2437 22.6923 98.5637 21.3873C100.521 20.2636 100.702 19.8648 99.5062 19.0673C98.6362 18.4873 98.5274 18.4873 97.6574 19.1761C96.3162 20.2273 94.2862 20.4448 92.4737 19.7198C91.0962 19.1761 89.8999 17.7623 89.8999 16.6748C89.8999 16.4573 91.7849 16.3123 95.3737 16.3123H100.847L100.702 14.2098C100.521 11.7086 99.5787 10.1498 97.6574 9.24358C96.1349 8.51858 92.6912 8.22858 91.2774 8.66358ZM96.3524 11.8173C96.7874 12.3248 97.1499 13.0498 97.1499 13.4486C97.1499 14.1011 96.8599 14.1373 93.4887 14.1373C89.8999 14.1373 89.8637 14.1373 90.0812 13.3036C90.9149 10.5848 94.4312 9.75108 96.3524 11.8173Z" fill="black"/>
<path d="M107.119 9.06255C105.415 9.93255 105.488 9.93255 105.488 9.2438C105.488 8.84505 105.053 8.70005 103.856 8.70005H102.225V15.4063V22.1125H104.038H105.85V17.2188V12.3613L106.938 11.7813C107.518 11.4913 108.678 11.2375 109.475 11.2375H110.961L110.853 9.86005C110.744 8.6638 110.635 8.5188 109.656 8.41005C109.076 8.3738 107.916 8.62755 107.119 9.06255Z" fill="black"/>
<path d="M131.189 8.88123C129.449 9.42498 127.6 10.9837 127.6 11.8175C127.6 12.6875 130.79 12.47 131.551 11.5637C131.95 11.0562 132.748 10.73 133.835 10.6212C135.321 10.44 135.648 10.5487 136.481 11.3825C137.061 11.9625 137.388 12.6512 137.315 13.1587C137.206 13.8837 136.989 13.9562 133.944 14.1375C129.195 14.4275 127.238 15.6962 127.238 18.5237C127.238 21.7137 132.566 23.49 136.3 21.5687C137.206 21.0975 137.351 21.0975 137.533 21.5687C137.678 21.9312 138.258 22.1125 139.49 22.1125H141.23L141.121 18.9225C140.831 11.3825 140.831 11.31 140.106 10.5125C139.708 10.0775 138.946 9.46123 138.366 9.20748C136.88 8.40998 133.146 8.26498 131.189 8.88123ZM137.315 16.965C137.46 18.4875 136.663 19.4662 134.814 19.9375C132.639 20.5175 130.863 19.6112 130.863 17.9075C130.863 16.4937 132.856 15.5875 135.756 15.6962C137.134 15.7687 137.206 15.8412 137.315 16.965Z" fill="black"/>
<path d="M54.375 13.4124C54.375 18.8862 54.8825 20.6987 56.695 21.6774C58.2537 22.5112 62.2412 22.5112 63.5462 21.6774C64.7062 20.8799 64.8875 20.8799 64.8875 21.5687C64.8875 21.9674 65.3225 22.1124 66.7 22.1124H68.5125V15.4062V8.69992H66.7H64.8875V13.5574C64.8875 18.3787 64.8875 18.4512 63.945 19.1762C63.2562 19.7199 62.4587 19.9374 61.2262 19.9374C58.29 19.9374 57.8912 18.9587 58.0725 12.5787L58.1812 8.69992H56.2962H54.375V13.4124Z" fill="black"/>
<path d="M141.375 8.84505C141.375 8.9538 142.68 11.9988 144.275 15.6238C146.668 21.1338 147.066 22.33 146.74 22.9825C146.015 24.4325 145.254 25.0125 143.84 25.23C142.607 25.4475 142.462 25.5925 142.462 26.4988C142.462 27.5138 142.499 27.55 144.384 27.55C146.341 27.55 147.864 26.8613 148.77 25.52C149.06 25.1575 150.401 22.1488 151.815 18.85C153.229 15.5513 154.787 11.9263 155.295 10.7663L156.237 8.6638L154.207 8.77255L152.177 8.8813L150.582 13.195C149.712 15.5513 148.915 17.5813 148.842 17.6538C148.77 17.7625 147.9 15.7688 146.921 13.2675L145.181 8.70005H143.296C142.245 8.70005 141.375 8.77255 141.375 8.84505Z" fill="black"/>
<path d="M25.955 23.7799C24.8675 24.8312 25.5925 26.4624 27.115 26.4624C28.3113 26.4624 29 25.8824 29 24.8312C29 23.2724 27.0788 22.6199 25.955 23.7799Z" fill="#655CED"/>
<path d="M10.1499 24.65C8.66368 26.1362 9.78743 28.6375 11.9624 28.6375C13.2312 28.6375 14.4999 27.405 14.4999 26.2087C14.4999 25.0487 13.2674 23.925 11.9624 23.925C11.3462 23.925 10.5487 24.2512 10.1499 24.65Z" fill="#655CED"/>
</g>
<defs>
<clipPath id="clip0_234_78">
<rect width="156.238" height="29" fill="white"/>
</clipPath>
</defs>
</svg>
