<svg width="193" height="36" viewBox="0 0 193 36" fill="none" xmlns="http://www.w3.org/2000/svg">
<path d="M2.37323 0.623995C1.83588 0.847893 1.02984 1.56436 0.626828 2.19128C-0.0896452 3.26599 -0.0896453 3.48989 0.582049 4.87806C1.3433 6.49012 3.00015 7.56483 6.04516 8.46042C7.79156 8.99778 7.83634 9.04255 8.19458 11.6398C9.53797 21.2226 11.3291 25.7901 14.4637 27.85C16.0758 28.9247 16.7923 29.059 20.6433 29.1934C26.1064 29.4173 29.1066 28.7904 33.5398 26.5514C39.3612 23.6407 43.66 18.1328 44.1974 12.9384C44.466 10.2068 43.9735 8.99778 41.9584 7.78873C40.1224 6.66924 37.8834 6.66924 32.4203 7.83351C25.166 9.40079 9.17973 9.53513 8.73193 8.10218C8.64237 7.78873 8.46326 6.57968 8.28414 5.41541C7.79156 1.87782 4.92567 -0.450716 2.37323 0.623995ZM4.88089 1.11657C6.53773 1.6987 7.38855 3.17643 7.83634 6.13188C8.19458 8.5052 8.19458 8.5052 5.14957 7.60961C0.805946 6.26622 -0.627 2.90775 2.46279 1.16135C2.95537 0.892672 3.35838 0.623995 3.40316 0.623995C3.44794 0.623995 4.07486 0.847891 4.88089 1.11657ZM40.5254 9.80381C41.9584 11.192 41.9584 13.1175 40.5254 16.2073C38.2865 21.0883 32.4651 25.3871 26.4646 26.6409C22.9718 27.3574 17.5087 26.9544 15.628 25.8797C13.7025 24.7602 11.4187 21.4017 10.5231 18.4015C9.71708 15.7595 8.68715 9.66947 9.00061 9.40079C9.09017 9.31123 10.4783 9.53513 12.0904 9.89337C16.5236 10.9233 27.808 10.789 32.689 9.66947C37.973 8.41564 39.2268 8.46042 40.5254 9.80381Z" fill="#655CED"/>
<path d="M137.697 15.6253V27.4919H139.846C141.414 27.4919 141.951 27.3127 141.951 26.8202C141.951 25.9693 141.862 25.9693 144.414 27.0888C147.056 28.2531 150.146 28.0292 152.564 26.5515C157.087 23.7304 156.907 14.2819 152.25 11.5951C150.191 10.4308 145.354 10.3413 143.608 11.4608C142.981 11.9086 142.309 12.2668 142.175 12.2668C141.996 12.2668 141.951 10.3413 142.041 8.01273L142.175 3.75867H139.936H137.697V15.6253ZM149.877 14.6849C151.041 15.7148 151.131 15.9835 151.131 19.2076C151.131 22.4318 151.041 22.7004 149.877 23.7304C148.086 25.2529 144.593 25.2529 143.071 23.6856C142.085 22.7452 141.951 22.2079 141.951 19.2076C141.951 16.2074 142.085 15.67 143.071 14.7297C144.593 13.1624 148.086 13.1624 149.877 14.6849Z" fill="black"/>
<path d="M53.3323 11.1025C50.556 12.0429 49.2574 13.3863 49.2574 15.4014C49.2574 18.0881 50.9143 19.2076 56.7356 20.551C60.1388 21.3571 60.9001 21.8496 60.9001 23.2378C60.9001 24.4468 59.288 25.2529 56.8252 25.2529C55.3922 25.2529 54.7205 24.9394 53.6458 23.9095C52.5711 22.8348 51.9442 22.5661 50.3321 22.5661C49.2574 22.5661 48.3618 22.6557 48.3618 22.79C48.3618 23.8199 50.0187 25.835 51.4516 26.5515C55.1683 28.477 61.3479 28.1188 64.0347 25.835C65.1094 24.9394 65.3781 24.3573 65.3781 22.9691C65.3781 20.0584 63.6764 18.939 57.273 17.6404C54.4966 17.103 53.1085 15.9835 53.5562 14.7745C54.4071 12.5803 60.0045 12.7594 60.6762 15.0431C60.9001 15.67 61.3927 15.8492 63.1839 15.8492C64.7511 15.8492 65.3781 15.67 65.3781 15.2223C65.3781 14.2819 63.6764 12.3116 62.1987 11.5503C60.2732 10.5652 55.7057 10.3413 53.3323 11.1025Z" fill="black"/>
<path d="M94.1713 11.0577C93.4101 11.3264 92.6041 11.7294 92.4249 11.9085C91.8876 12.4906 91.3502 12.3115 91.3502 11.5951C91.3502 11.1025 90.8129 10.9234 89.3351 10.9234H87.3201V22.566V34.2087H89.559H91.798V30.1786V26.1036L93.2758 26.9097C95.47 28.0739 99.6792 27.9844 101.739 26.6858C106.396 23.8199 106.396 14.3266 101.784 11.6846C99.9927 10.6547 96.0521 10.2964 94.1713 11.0577ZM98.5597 14.0579C100.082 14.9087 100.888 17.1029 100.664 19.9241C100.44 22.9691 99.5897 24.1333 97.1268 24.8498C95.7386 25.2976 95.2013 25.2528 93.7235 24.5364L92.0219 23.6855L91.8876 19.4315C91.7532 15.5357 91.8428 15.1326 92.7384 14.3714C93.8131 13.5206 97.1716 13.3415 98.5597 14.0579Z" fill="black"/>
<path d="M112.755 10.8786C108.545 12.2667 106.575 14.9983 106.575 19.5658C106.575 23.1482 107.65 24.9393 110.829 26.5514C113.964 28.1635 118.89 28.2083 121.755 26.5962C124.174 25.208 124.397 24.7154 122.92 23.7303C121.845 23.0138 121.711 23.0138 120.636 23.8646C118.979 25.1632 116.471 25.4319 114.233 24.5363C112.531 23.8646 111.053 22.1182 111.053 20.7748C111.053 20.5062 113.382 20.327 117.815 20.327H124.577L124.397 17.7298C124.174 14.64 123.009 12.7145 120.636 11.595C118.755 10.6994 114.501 10.3412 112.755 10.8786ZM119.024 14.7744C119.561 15.4013 120.009 16.2969 120.009 16.7895C120.009 17.5955 119.651 17.6403 115.486 17.6403C111.053 17.6403 111.008 17.6403 111.277 16.6103C112.307 13.2519 116.651 12.2219 119.024 14.7744Z" fill="black"/>
<path d="M132.324 11.3712C130.219 12.4459 130.308 12.4459 130.308 11.5951C130.308 11.1025 129.771 10.9234 128.293 10.9234H126.278V19.2076V27.4918H128.517H130.756V21.4466V15.4461L132.1 14.7296C132.816 14.3714 134.249 14.0579 135.234 14.0579H137.07L136.936 12.3563C136.802 10.8786 136.667 10.6995 135.458 10.5651C134.742 10.5204 133.309 10.8338 132.324 11.3712Z" fill="black"/>
<path d="M162.057 11.1473C159.908 11.819 157.624 13.7445 157.624 14.7744C157.624 15.8491 161.565 15.5805 162.505 14.461C162.998 13.8341 163.983 13.431 165.326 13.2967C167.162 13.0728 167.565 13.2071 168.595 14.2371C169.312 14.9535 169.715 15.8044 169.625 16.4313C169.491 17.3269 169.222 17.4164 165.46 17.6403C159.594 17.9986 157.176 19.5658 157.176 23.0586C157.176 26.9993 163.759 29.1935 168.371 26.8201C169.491 26.238 169.67 26.238 169.894 26.8201C170.073 27.2679 170.789 27.4918 172.312 27.4918H174.461L174.327 23.5512C173.969 14.2371 173.969 14.1475 173.073 13.1624C172.58 12.625 171.64 11.8638 170.924 11.5503C169.088 10.5651 164.475 10.386 162.057 11.1473ZM169.625 21.1331C169.804 23.0139 168.819 24.2229 166.535 24.8051C163.848 25.5215 161.654 24.402 161.654 22.2974C161.654 20.551 164.117 19.4315 167.699 19.5658C169.401 19.6554 169.491 19.745 169.625 21.1331Z" fill="black"/>
<path d="M67.1692 16.7447C67.1692 23.5065 67.7961 25.7454 70.0351 26.9545C71.9606 27.9844 76.8864 27.9844 78.4984 26.9545C79.9314 25.9693 80.1553 25.9693 80.1553 26.8201C80.1553 27.3127 80.6926 27.4918 82.3942 27.4918H84.6332V19.2076V10.9234H82.3942H80.1553V16.9239C80.1553 22.8795 80.1553 22.9691 78.991 23.8647C78.1402 24.5364 77.155 24.8051 75.6325 24.8051C72.0054 24.8051 71.5128 23.596 71.7367 15.7148L71.871 10.9234H69.5425H67.1692V16.7447Z" fill="black"/>
<path d="M174.64 11.1025C174.64 11.2368 176.252 14.9983 178.223 19.4763C181.178 26.2828 181.671 27.7605 181.268 28.5665C180.372 30.3577 179.432 31.0742 177.685 31.3428C176.163 31.6115 175.984 31.7906 175.984 32.9101C175.984 34.164 176.028 34.2087 178.357 34.2087C180.775 34.2087 182.656 33.3579 183.775 31.7011C184.133 31.2533 185.79 27.5366 187.537 23.4616C189.283 19.3867 191.209 14.9087 191.835 13.4758L193 10.8786L190.492 11.0129L187.984 11.1473L186.014 16.476C184.939 19.3867 183.954 21.8944 183.865 21.9839C183.775 22.1183 182.7 19.6554 181.491 16.5656L179.342 10.9234H177.013C175.715 10.9234 174.64 11.0129 174.64 11.1025Z" fill="black"/>
<path d="M32.062 29.5517C30.7186 30.8503 31.6142 32.8654 33.4949 32.8654C34.9727 32.8654 35.8235 32.1489 35.8235 30.8503C35.8235 28.9248 33.4502 28.1187 32.062 29.5517Z" fill="#655CED"/>
<path d="M12.5383 30.6264C10.7023 32.4623 12.0905 35.5521 14.7773 35.5521C16.3446 35.5521 17.9119 34.0296 17.9119 32.5519C17.9119 31.1189 16.3894 29.7308 14.7773 29.7308C14.016 29.7308 13.0309 30.1338 12.5383 30.6264Z" fill="#655CED"/>
</svg>
