<svg width="193" height="36" viewBox="0 0 193 36" fill="none" xmlns="http://www.w3.org/2000/svg">
<g clip-path="url(#clip0_159_80)">
<path d="M2.37332 0.624117C1.83597 0.848015 1.02994 1.56449 0.62692 2.1914C-0.0895537 3.26611 -0.0895537 3.49001 0.58214 4.87818C1.34339 6.49024 3.00024 7.56495 6.04525 8.46054C7.79165 8.9979 7.83643 9.04268 8.19467 11.6399C9.53806 21.2227 11.3292 25.7902 14.4638 27.8501C16.0759 28.9248 16.7923 29.0592 20.6434 29.1935C26.1065 29.4174 29.1067 28.7905 33.5399 26.5515C39.3613 23.6408 43.6601 18.1329 44.1975 12.9385C44.4661 10.2069 43.9736 8.9979 41.9585 7.78885C40.1225 6.66936 37.8835 6.66936 32.4204 7.83363C25.1661 9.40092 9.17982 9.53525 8.73202 8.10231C8.64247 7.78885 8.46335 6.5798 8.28423 5.41553C7.79165 1.87794 4.92576 -0.450594 2.37332 0.624117ZM4.88098 1.11669C6.53782 1.69883 7.38864 3.17655 7.83643 6.13201C8.19467 8.50532 8.19467 8.50532 5.14966 7.60973C0.806038 6.26634 -0.626909 2.90788 2.46288 1.16147C2.95546 0.892794 3.35847 0.624117 3.40325 0.624117C3.44803 0.624117 4.07495 0.848013 4.88098 1.11669ZM40.5255 9.80393C41.9585 11.1921 41.9585 13.1176 40.5255 16.2074C38.2866 21.0884 32.4652 25.3872 26.4647 26.6411C22.9719 27.3575 17.5088 26.9545 15.6281 25.8798C13.7026 24.7603 11.4188 21.4018 10.5232 18.4016C9.71718 15.7596 8.68725 9.66959 9.0007 9.40092C9.09026 9.31136 10.4784 9.53525 12.0905 9.89349C16.5237 10.9234 27.8081 10.7891 32.6891 9.66959C37.9731 8.41576 39.2269 8.46054 40.5255 9.80393Z" fill="white"/>
<path d="M137.697 15.6254V27.492H139.847C141.414 27.492 141.951 27.3129 141.951 26.8203C141.951 25.9695 141.862 25.9695 144.414 27.089C147.056 28.2532 150.146 28.0293 152.564 26.5516C157.087 23.7305 156.908 14.282 152.251 11.5952C150.191 10.431 145.355 10.3414 143.608 11.4609C142.981 11.9087 142.31 12.2669 142.175 12.2669C141.996 12.2669 141.951 10.3414 142.041 8.01286L142.175 3.75879H139.936H137.697V15.6254ZM149.877 14.685C151.042 15.7149 151.131 15.9836 151.131 19.2078C151.131 22.4319 151.042 22.7006 149.877 23.7305C148.086 25.253 144.593 25.253 143.071 23.6857C142.086 22.7453 141.951 22.208 141.951 19.2078C141.951 16.2075 142.086 15.6702 143.071 14.7298C144.593 13.1625 148.086 13.1625 149.877 14.685Z" fill="#fff"/>
<path d="M53.3325 11.1025C50.5562 12.0429 49.2576 13.3863 49.2576 15.4014C49.2576 18.0881 50.9144 19.2076 56.7358 20.551C60.139 21.3571 60.9003 21.8496 60.9003 23.2378C60.9003 24.4468 59.2882 25.2529 56.8253 25.2529C55.3924 25.2529 54.7207 24.9394 53.646 23.9095C52.5712 22.8348 51.9443 22.5661 50.3323 22.5661C49.2576 22.5661 48.362 22.6557 48.362 22.79C48.362 23.8199 50.0188 25.835 51.4518 26.5515C55.1685 28.477 61.348 28.1188 64.0348 25.835C65.1095 24.9394 65.3782 24.3573 65.3782 22.9691C65.3782 20.0584 63.6766 18.939 57.2731 17.6404C54.4968 17.103 53.1086 15.9835 53.5564 14.7745C54.4072 12.5803 60.0047 12.7594 60.6764 15.0431C60.9003 15.67 61.3928 15.8492 63.184 15.8492C64.7513 15.8492 65.3782 15.67 65.3782 15.2223C65.3782 14.2819 63.6766 12.3116 62.1989 11.5503C60.2733 10.5652 55.7058 10.3413 53.3325 11.1025Z" fill="#fff"/>
<path d="M94.1715 11.0577C93.4102 11.3264 92.6042 11.7294 92.4251 11.9085C91.8877 12.4906 91.3504 12.3115 91.3504 11.5951C91.3504 11.1025 90.813 10.9234 89.3353 10.9234H87.3202V22.566V34.2087H89.5592H91.7981V30.1786V26.1036L93.2759 26.9097C95.4701 28.0739 99.6794 27.9844 101.739 26.6858C106.396 23.8199 106.396 14.3266 101.784 11.6846C99.9928 10.6547 96.0522 10.2964 94.1715 11.0577ZM98.5599 14.0579C100.082 14.9087 100.888 17.1029 100.665 19.9241C100.441 22.9691 99.5898 24.1333 97.1269 24.8498C95.7388 25.2976 95.2014 25.2528 93.7237 24.5364L92.022 23.6855L91.8877 19.4315C91.7534 15.5357 91.8429 15.1326 92.7385 14.3714C93.8132 13.5206 97.1717 13.3415 98.5599 14.0579Z" fill="#fff"/>
<path d="M112.755 10.8787C108.546 12.2668 106.575 14.9984 106.575 19.5659C106.575 23.1483 107.65 24.9395 110.829 26.5515C113.964 28.1636 118.89 28.2084 121.756 26.5963C124.174 25.2081 124.398 24.7156 122.92 23.7304C121.845 23.0139 121.711 23.0139 120.636 23.8648C118.979 25.1634 116.472 25.432 114.233 24.5364C112.531 23.8648 111.053 22.1184 111.053 20.775C111.053 20.5063 113.382 20.3272 117.815 20.3272H124.577L124.398 17.73C124.174 14.6402 123.01 12.7146 120.636 11.5951C118.755 10.6996 114.501 10.3413 112.755 10.8787ZM119.024 14.7745C119.561 15.4014 120.009 16.297 120.009 16.7896C120.009 17.5956 119.651 17.6404 115.487 17.6404C111.053 17.6404 111.009 17.6404 111.277 16.6105C112.307 13.252 116.651 12.2221 119.024 14.7745Z" fill="#fff"/>
<path d="M132.324 11.3713C130.219 12.446 130.309 12.446 130.309 11.5952C130.309 11.1026 129.771 10.9235 128.294 10.9235H126.278V19.2077V27.4919H128.517H130.756V21.4467V15.4462L132.1 14.7298C132.816 14.3715 134.249 14.0581 135.234 14.0581H137.07L136.936 12.3564C136.802 10.8787 136.667 10.6996 135.458 10.5653C134.742 10.5205 133.309 10.8339 132.324 11.3713Z" fill="#fff"/>
<path d="M162.057 11.1474C159.908 11.8191 157.624 13.7446 157.624 14.7745C157.624 15.8493 161.565 15.5806 162.505 14.4611C162.998 13.8342 163.983 13.4312 165.326 13.2968C167.162 13.0729 167.565 13.2073 168.595 14.2372C169.312 14.9537 169.715 15.8045 169.625 16.4314C169.491 17.327 169.222 17.4165 165.461 17.6404C159.594 17.9987 157.176 19.566 157.176 23.0588C157.176 26.9994 163.759 29.1936 168.371 26.8203C169.491 26.2381 169.67 26.2381 169.894 26.8203C170.073 27.2681 170.789 27.4919 172.312 27.4919H174.461L174.327 23.5513C173.969 14.2372 173.969 14.1476 173.073 13.1625C172.581 12.6251 171.64 11.8639 170.924 11.5504C169.088 10.5653 164.475 10.3861 162.057 11.1474ZM169.625 21.1332C169.804 23.014 168.819 24.223 166.535 24.8052C163.848 25.5216 161.654 24.4022 161.654 22.2975C161.654 20.5511 164.117 19.4316 167.7 19.566C169.401 19.6555 169.491 19.7451 169.625 21.1332Z" fill="#fff"/>
<path d="M67.1694 16.7449C67.1694 23.5066 67.7963 25.7456 70.0353 26.9546C71.9608 27.9845 76.8865 27.9845 78.4986 26.9546C79.9316 25.9695 80.1555 25.9695 80.1555 26.8203C80.1555 27.3128 80.6928 27.492 82.3944 27.492H84.6334V19.2077V10.9235H82.3944H80.1555V16.924C80.1555 22.8797 80.1555 22.9692 78.9912 23.8648C78.1404 24.5365 77.1552 24.8052 75.6327 24.8052C72.0056 24.8052 71.513 23.5961 71.7369 15.7149L71.8712 10.9235H69.5427H67.1694V16.7449Z" fill="#fff"/>
<path d="M174.64 11.1025C174.64 11.2368 176.252 14.9983 178.223 19.4763C181.178 26.2828 181.671 27.7605 181.268 28.5665C180.372 30.3577 179.432 31.0742 177.685 31.3428C176.163 31.6115 175.984 31.7906 175.984 32.9101C175.984 34.164 176.029 34.2087 178.357 34.2087C180.775 34.2087 182.656 33.3579 183.775 31.7011C184.134 31.2533 185.79 27.5366 187.537 23.4616C189.283 19.3867 191.209 14.9087 191.836 13.4758L193 10.8786L190.492 11.0129L187.985 11.1473L186.014 16.476C184.94 19.3867 183.955 21.8944 183.865 21.9839C183.775 22.1183 182.701 19.6554 181.492 16.5656L179.342 10.9234H177.014C175.715 10.9234 174.64 11.0129 174.64 11.1025Z" fill="#fff"/>
<path d="M32.0622 29.5518C30.7188 30.8504 31.6144 32.8655 33.4951 32.8655C34.9729 32.8655 35.8237 32.149 35.8237 30.8504C35.8237 28.9249 33.4503 28.1188 32.0622 29.5518Z" fill="white"/>
<path d="M12.5383 30.6265C10.7023 32.4625 12.0905 35.5522 14.7773 35.5522C16.3445 35.5522 17.9118 34.0297 17.9118 32.552C17.9118 31.1191 16.3893 29.7309 14.7773 29.7309C14.016 29.7309 13.0309 30.1339 12.5383 30.6265Z" fill="white"/>
</g>
<defs>
<clipPath id="clip0_159_80">
<rect width="193" height="35.8237" fill="white" transform="translate(0 0.17627)"/>
</clipPath>
</defs>
</svg>
