<svg width="32" height="38" viewBox="0 0 32 38" fill="none" xmlns="http://www.w3.org/2000/svg">
<path fill-rule="evenodd" clip-rule="evenodd" d="M8.28575 9.71934L30.186 17.3476C30.4445 17.4386 30.6773 17.5907 30.8644 17.7909C31.0515 17.9911 31.1875 18.2336 31.2608 18.4977C31.3342 18.7617 31.3427 19.0396 31.2856 19.3076C31.2285 19.5757 31.1075 19.826 30.9329 20.0372L21.6598 31.183C21.2071 31.7243 20.4648 31.9312 19.7965 31.6984L6.9762 27.2329C6.33038 27.0079 5.88109 26.4148 5.84035 25.7321L4.59452 4.83969L0.854195 3.53687L1.97058 0.331795L5.7093 1.63406C6.34289 1.85314 6.89716 2.25541 7.30188 2.78987C7.70659 3.32432 7.94351 3.9669 7.98261 4.63616L8.28575 9.71934ZM17.2217 23.6137L20.4267 24.7301L21.5431 21.525L18.338 20.4086L19.4544 17.2035L16.2493 16.0871L15.133 19.2922L11.9279 18.1758L10.8115 21.3809L14.0166 22.4973L12.9002 25.7024L16.1053 26.8187L17.2217 23.6137ZM5.54436 33.9223C6.87194 34.3847 8.32303 33.6833 8.78545 32.3557C9.24787 31.0282 8.54652 29.5771 7.21893 29.1146C5.89135 28.6522 4.44026 29.3536 3.97784 30.6812C3.51542 32.0088 4.21677 33.4598 5.54436 33.9223ZM16.7617 37.8294C18.0893 38.2919 19.5404 37.5905 20.0028 36.2629C20.4652 34.9353 19.7639 33.4843 18.4363 33.0218C17.1087 32.5594 15.6576 33.2608 15.1952 34.5884C14.7328 35.9159 15.4341 37.367 16.7617 37.8294Z" fill="white"/>
</svg>
