<svg width="35" height="42" viewBox="0 0 35 42" fill="none" xmlns="http://www.w3.org/2000/svg">
<path d="M25.006 17V12.24C24.9585 8.12807 21.6117 4.81964 17.4995 4.81964C13.3873 4.81964 10.0405 8.12807 9.993 12.24V17H5V12.5C5 5.597 10.596 0 17.5 0C24.404 0 30 5.597 30 12.5V17H25.006Z" fill="#6772E5"/>
<path d="M14 27C14 28.48 14.805 29.77 16 30.46V34C16 35.1046 16.8954 36 18 36V42H4C1.79086 42 0 40.2091 0 38V21C0 18.7909 1.79086 17 4 17H18V23C15.7909 23 14 24.7909 14 27Z" fill="#87BBFD"/>
<path d="M31 42H18V36C19.1046 36 20 35.1046 20 34V30.46C21.2378 29.7477 22.0006 28.4282 22 27C22 24.7909 20.2091 23 18 23V17H31C33.2091 17 35 18.7909 35 21V38C35 40.2091 33.2091 42 31 42Z" fill="#6772E5"/>
</svg>
