<svg width="48" height="39" viewBox="0 0 48 39" fill="none" xmlns="http://www.w3.org/2000/svg">
<path d="M26.6997 34.4522C21.4598 38.8578 14.0013 39.4523 8.12968 35.9322L0.679685 38.4022C0.159685 38.5822 -0.120315 38.3022 0.0496847 37.7722L2.53968 30.3222C-0.339 25.4824 -0.481656 19.4908 2.16343 14.5195C4.80852 9.5482 9.8574 6.31885 15.4797 6.0022C12.102 11.0782 11.4219 17.4858 13.6588 23.1578C15.8957 28.8297 20.7664 33.0482 26.6997 34.4522Z" fill="#6971E0"/>
<path d="M44.9497 24.3521C49.1069 17.3703 47.4138 8.38541 41.0006 3.39549C34.5874 -1.59443 25.462 -1.02714 19.7162 4.71865C13.9704 10.4644 13.4031 19.5899 18.393 26.0031C23.383 32.4162 32.3679 34.1094 39.3497 29.9522L46.8097 32.4422C47.3297 32.6121 47.6097 32.3321 47.4397 31.8122L44.9497 24.3521Z" fill="#87BBFD"/>
<path d="M24.7898 18.5822C24.1503 18.5822 23.5593 18.241 23.2396 17.6872C22.9198 17.1334 22.9198 16.451 23.2396 15.8972C23.5593 15.3434 24.1503 15.0022 24.7898 15.0022C25.7783 15.0022 26.5798 15.8036 26.5798 16.7922C26.5798 17.7808 25.7783 18.5822 24.7898 18.5822ZM30.7898 18.5822C30.1503 18.5822 29.5593 18.241 29.2396 17.6872C28.9198 17.1334 28.9198 16.451 29.2396 15.8972C29.5593 15.3434 30.1503 15.0022 30.7898 15.0022C31.7783 15.0022 32.5798 15.8036 32.5798 16.7922C32.5798 17.7808 31.7783 18.5822 30.7898 18.5822ZM36.7898 18.5822C36.1503 18.5822 35.5593 18.241 35.2396 17.6872C34.9198 17.1334 34.9198 16.451 35.2396 15.8972C35.5593 15.3434 36.1503 15.0022 36.7898 15.0022C37.7783 15.0022 38.5798 15.8036 38.5798 16.7922C38.5798 17.7808 37.7783 18.5822 36.7898 18.5822Z" fill="#6971E0"/>
</svg>
