<svg width="36" height="37" viewBox="0 0 36 37" fill="none" xmlns="http://www.w3.org/2000/svg">
<path d="M0.00906448 13L0 10.1825C0 8.12695 1.56544 7.57762 3.39012 7.02298L26.1084 0.108562C27.7056 -0.375199 29 0.803193 29 2.74001V12.4241L0.00997093 13H0.00906448Z" fill="#87BBFD"/>
<path d="M30.6 37H5.4C2.41766 37 0 34.5917 0 31.621V11.8979H0.0027V10C0.0027 10 0.3033 11.7634 2.304 11.8979H30.6C33.5823 11.8979 36 14.3062 36 17.2769V31.621C36 34.5917 33.5823 37 30.6 37ZM29.6964 21.7594C28.98 21.759 28.2928 22.0421 27.786 22.5465C27.2793 23.051 26.9946 23.7353 26.9946 24.4489C26.9961 25.934 28.2056 27.1368 29.6964 27.1358C30.4126 27.1367 31.0999 26.8542 31.607 26.3503C32.114 25.8463 32.3993 25.1624 32.4 24.4489C32.4 23.735 32.115 23.0504 31.6079 22.5459C31.1008 22.0414 30.4131 21.7585 29.6964 21.7594Z" fill="#6772E5"/>
</svg>
