<svg width="23" height="20" viewBox="0 0 23 20" fill="none" xmlns="http://www.w3.org/2000/svg">
<path d="M2.02881 20H8.7251C9.33305 20 9.82646 19.4921 9.82646 18.8662V11.9726C9.82646 11.3467 9.33305 10.8388 8.7251 10.8388H5.52013C5.56198 9.03374 5.96949 7.58928 6.74044 6.50309C7.34839 5.64593 8.26911 4.93616 9.50046 4.37606C10.0666 4.11981 10.3111 3.43046 10.0467 2.85446L9.25375 1.13106C8.99824 0.577784 8.36605 0.335123 7.81978 0.577782C6.36157 1.22632 5.13023 2.0472 4.1258 3.04496C2.90107 4.26268 2.06185 5.63686 1.60809 7.16977C1.1543 8.70269 0.927444 10.7934 0.927444 13.4466V18.8662C0.927444 19.492 1.42088 20 2.02881 20Z" fill="#DBDBDB"/>
<path d="M20.5017 0.578773C19.0057 1.22516 17.7339 2.04617 16.684 3.04187C15.4007 4.2598 14.5246 5.6297 14.0534 7.15155C13.5822 8.67341 13.3466 10.7713 13.3466 13.4454V18.866C13.3466 19.492 13.859 20 14.4903 20H21.4442C22.0755 20 22.5879 19.492 22.5879 18.866V11.9711C22.5879 11.3451 22.0755 10.8371 21.4442 10.8371H18.1159C18.1594 9.03174 18.5826 7.58702 19.3832 6.50063C20.0145 5.64331 20.9707 4.93341 22.2493 4.3732C22.8372 4.11692 23.0911 3.42743 22.8166 2.85133L21.9954 1.13215C21.7301 0.578773 21.069 0.333803 20.5017 0.578773Z" fill="#DBDBDB"/>
</svg>
