<svg width="12" height="7" viewBox="0 0 12 7" fill="none" xmlns="http://www.w3.org/2000/svg">
<path d="M6.83702 6.80994L11.8211 1.50758C11.9364 1.38495 12 1.22124 12 1.04668C12 0.872118 11.9364 0.708408 11.8211 0.585771L11.4541 0.195289C11.215 -0.0587998 10.8264 -0.0587998 10.5876 0.195289L6.40232 4.64781L2.21237 0.190349C2.097 0.0677119 1.94321 0 1.77922 0C1.61504 0 1.46125 0.0677119 1.34579 0.190349L0.978926 0.580831C0.863558 0.703565 0.800001 0.867178 0.800001 1.04174C0.800001 1.2163 0.863558 1.38001 0.978926 1.50264L5.96753 6.80994C6.08326 6.93287 6.23778 7.00039 6.40205 7C6.56695 7.00039 6.72138 6.93287 6.83702 6.80994Z" fill="#655CED"/>
<path d="M6.83702 6.80994L11.8211 1.50758C11.9364 1.38495 12 1.22124 12 1.04668C12 0.872118 11.9364 0.708408 11.8211 0.585771L11.4541 0.195289C11.215 -0.0587998 10.8264 -0.0587998 10.5876 0.195289L6.40232 4.64781L2.21237 0.190349C2.097 0.0677119 1.94321 0 1.77922 0C1.61504 0 1.46125 0.0677119 1.34579 0.190349L0.978926 0.580831C0.863558 0.703565 0.800001 0.867178 0.800001 1.04174C0.800001 1.2163 0.863558 1.38001 0.978926 1.50264L5.96753 6.80994C6.08326 6.93287 6.23778 7.00039 6.40205 7C6.56695 7.00039 6.72138 6.93287 6.83702 6.80994Z" stroke="white"/>
</svg>
