<svg width="56" height="56" viewBox="0 0 56 56" fill="none" xmlns="http://www.w3.org/2000/svg">
<circle cx="28" cy="28" r="28" fill="#F1F6FF"/>
<g clip-path="url(#clip0_234_119)">
<path d="M39.6971 21.4537C38.9836 21.7771 38.2336 22.0028 37.4655 22.1252C37.8254 22.0602 38.3499 21.3725 38.5607 21.0964C38.8917 20.675 39.1446 20.1919 39.3063 19.6723C39.3063 19.6343 39.3372 19.5802 39.3063 19.5531C39.2879 19.5436 39.2677 19.5386 39.2472 19.5386C39.2267 19.5386 39.2065 19.5436 39.1881 19.5531C38.3498 20.0288 37.4585 20.3926 36.5348 20.6361C36.503 20.646 36.4692 20.6461 36.4374 20.6365C36.4055 20.6269 36.3769 20.608 36.3548 20.582C36.2843 20.4924 36.2069 20.4091 36.1234 20.3329C35.7385 19.9879 35.3048 19.7084 34.838 19.5044C34.2137 19.2387 33.5403 19.1258 32.8686 19.1741C32.2171 19.214 31.581 19.3985 31.0021 19.7156C30.4207 20.0356 29.9079 20.4779 29.4955 21.0151C29.0656 21.5687 28.7582 22.2161 28.5956 22.9104C28.4527 23.568 28.4352 24.249 28.5442 24.9139C28.5442 25.0276 28.5442 25.0438 28.4568 25.0276C24.8163 24.4861 21.7723 23.0836 19.3453 20.1542C19.2424 20.0296 19.1859 20.0296 19.0984 20.1542C18.0238 21.849 18.5431 24.5673 19.8852 25.8994C20.0618 26.0912 20.249 26.272 20.4456 26.4409C19.831 26.3856 19.2331 26.2015 18.6871 25.8994C18.5791 25.829 18.5277 25.8723 18.5174 25.9968C18.5108 26.178 18.5212 26.3593 18.5482 26.5383C18.6551 27.4012 18.9774 28.2188 19.4824 28.9075C19.9874 29.5963 20.6569 30.1316 21.4226 30.4587C21.6103 30.5444 21.8071 30.6062 22.0088 30.6428C21.4417 30.7629 20.8596 30.783 20.2862 30.7024C20.1577 30.7024 20.1114 30.7403 20.1577 30.8702C20.9187 33.0362 22.5538 33.6914 23.757 34.065C23.9216 34.0921 24.0861 34.0921 24.2712 34.1354C24.2712 34.1354 24.2712 34.1354 24.2712 34.1625C23.865 34.8177 22.451 35.305 21.798 35.5433C20.5943 35.9952 19.3123 36.1688 18.0392 36.0523C17.8387 36.0198 17.7975 36.0198 17.741 36.0523C17.6844 36.0848 17.741 36.1389 17.7975 36.1931C18.0546 36.3718 18.3117 36.5288 18.5791 36.6804C19.3769 37.1308 20.2204 37.485 21.0935 37.7363C25.603 39.0522 30.6884 38.0883 34.077 34.5415C36.7353 31.7583 37.6763 27.9191 37.6763 24.0746C37.6763 23.9229 37.846 23.8417 37.9488 23.7605C38.6228 23.2097 39.2169 22.5585 39.7125 21.8274C39.7918 21.7231 39.8337 21.5927 39.8308 21.4592C39.7897 21.3942 39.7897 21.4104 39.6971 21.4537Z" fill="#2E526B"/>
</g>
<defs>
<clipPath id="clip0_234_119">
<rect width="22.1053" height="19.1579" fill="white" transform="translate(17.6843 19.1578)"/>
</clipPath>
</defs>
</svg>
